<svg version="1.0" xmlns="http://www.w3.org/2000/svg"
 width="256pt" height="144pt" viewBox="0 0 1280 720"
 preserveAspectRatio="xMidYMid meet">
  
  <!-- White Circle -->
  <circle cx="640" cy="360" r="280" fill="white" />
  
  <!-- Original Content -->
  <g transform="translate(0,720) scale(0.1,-0.1)"
     fill="#000000" stroke="none">
    <path d="M6105 4730 l-250 -250 281 -281 c270 -268 281 -281 260 -294 -38 -25
    -246 -115 -265 -115 -11 0 -23 12 -31 30 -18 43 -220 234 -282 267 -47 25 -63
    28 -148 28 -115 -1 -167 -21 -238 -92 -65 -65 -94 -129 -100 -217 -12 -193
    118 -347 308 -363 91 -8 211 12 350 57 63 21 120 36 125 34 6 -3 17 -15 25
    -28 8 -13 28 -40 43 -60 l28 -35 -42 -38 c-88 -79 -291 -279 -301 -297 -9 -16
    22 -51 238 -267 137 -137 253 -249 257 -249 5 0 121 113 258 252 l250 252
    -276 276 c-151 151 -275 279 -275 283 0 8 203 107 247 121 19 6 41 -13 154
    -128 164 -169 200 -190 334 -191 71 0 100 4 136 21 172 80 251 281 178 451
    -27 63 -110 146 -172 174 -108 47 -265 35 -476 -36 l-98 -33 -52 58 c-28 32
    -51 60 -51 62 0 2 80 84 177 181 l178 176 -250 251 c-137 137 -254 250 -260
    250 -5 0 -123 -113 -260 -250z m357 -147 c54 -54 98 -102 98 -108 0 -5 -36
    -46 -80 -90 -47 -47 -82 -91 -83 -103 -1 -12 -5 -22 -11 -22 -14 0 -216 202
    -216 217 0 13 177 203 189 203 3 0 50 -44 103 -97z m-737 -691 c17 -11 48 -38
    70 -61 22 -23 62 -59 88 -79 57 -44 53 -51 -56 -78 -97 -24 -194 -24 -229 -1
    -52 36 -72 112 -43 168 33 62 112 86 170 51z m1396 -25 c19 -12 42 -39 52 -59
    47 -95 -62 -208 -160 -166 -17 7 -72 52 -122 100 l-91 87 28 15 c37 19 155 44
    213 45 32 1 56 -6 80 -22z m-665 -689 c57 -56 104 -107 104 -114 0 -7 -43 -55
    -96 -108 -75 -75 -100 -94 -113 -87 -24 13 -181 181 -181 193 0 6 36 48 80 94
    46 48 80 92 80 104 0 11 5 20 11 20 7 0 58 -46 115 -102z"/>
  </g>
</svg>
