<svg version="1.0" xmlns="http://www.w3.org/2000/svg"
 width="666.000000pt" height="375.000000pt" viewBox="0 0 666.000000 375.000000"
 preserveAspectRatio="xMidYMid meet">

<g transform="translate(0.000000,375.000000) scale(0.100000,-0.100000)"
fill="#000000" stroke="none">
<path d="M3182 3210 c-526 -54 -964 -387 -1130 -860 -51 -146 -66 -238 -66
-410 -1 -171 14 -261 66 -410 154 -437 548 -763 1023 -845 127 -22 347 -22
470 0 267 48 514 175 706 364 181 180 280 351 347 600 23 87 25 113 26 291 0
179 -2 203 -26 291 -68 252 -186 451 -367 622 -275 258 -675 394 -1049 357z
m240 -697 l128 -128 -90 -90 -90 -91 28 -27 28 -27 58 21 c32 11 87 23 121 26
82 7 138 -17 178 -79 25 -38 28 -51 25 -103 -6 -99 -73 -165 -167 -165 -62 0
-91 16 -168 92 l-71 71 -67 -28 -66 -29 140 -140 141 -141 -130 -130 -130
-130 -130 130 -131 130 91 89 91 89 -27 28 -26 27 -56 -20 c-32 -12 -89 -23
-128 -26 -58 -4 -77 -1 -111 17 -66 33 -88 73 -88 156 0 83 23 123 90 155 85
41 159 16 254 -85 l60 -64 67 30 67 31 -141 141 -142 142 127 128 c71 70 130
127 133 127 3 0 62 -57 132 -127z"/>
<path d="M3237 2432 l-47 -48 50 -49 50 -49 50 49 50 49 -47 48 c-26 26 -50
48 -53 48 -3 0 -27 -22 -53 -48z"/>
<path d="M2897 2072 c-29 -32 -19 -78 21 -93 23 -9 121 3 145 18 4 3 -9 17
-30 32 -21 15 -44 35 -52 44 -18 22 -64 22 -84 -1z"/>
<path d="M3555 2073 c-11 -3 -24 -8 -28 -12 -10 -9 87 -101 106 -101 22 0 67
39 67 59 0 9 -7 27 -16 39 -12 18 -24 22 -62 21 -26 -1 -56 -3 -67 -6z"/>
<path d="M3237 1722 l-47 -48 50 -49 50 -49 50 49 50 49 -47 48 c-26 26 -50
48 -53 48 -3 0 -27 -22 -53 -48z"/>
</g>
</svg>
